<svg width="62" height="115" viewBox="0 0 92 145" fill="none" xmlns="http://www.w3.org/2000/svg">
<path d="M32.8571 125.227H59.1429V118.636H32.8571V125.227ZM13.1429 145C9.52857 145 6.43562 143.71 3.864 141.131C1.288 138.548 0 135.443 0 131.818V13.1818C0 9.55682 1.288 6.4525 3.864 3.86886C6.43562 1.28962 9.52857 0 13.1429 0H78.8571C82.4714 0 85.5666 1.28962 88.1426 3.86886C90.7142 6.4525 92 9.55682 92 13.1818V131.818C92 135.443 90.7142 138.548 88.1426 141.131C85.5666 143.71 82.4714 145 78.8571 145H13.1429ZM13.1429 112.045V131.818H78.8571V112.045H13.1429ZM13.1429 98.8636H78.8571V32.9545H13.1429V98.8636ZM13.1429 19.7727H78.8571V13.1818H13.1429V19.7727Z" fill="url(#paint0_linear_31_20)"/>
<defs>
<linearGradient id="paint0_linear_31_20" x1="46" y1="0" x2="46" y2="145" gradientUnits="userSpaceOnUse">
<stop stop-color="#CBA0CE"/>
<stop offset="0.515625" stop-color="#6D8AC7"/>
<stop offset="1" stop-color="#27E2F0"/>
</linearGradient>
</defs>
</svg>
