<svg width="106" height="122" viewBox="0 0 106 122" fill="none" xmlns="http://www.w3.org/2000/svg">
<path d="M74.1976 1.17874e-06C77.5475 0.000103174 80.7799 1.24444 83.2768 3.49513C85.7737 5.74581 87.3598 8.84494 87.7321 12.2H95.4073C98.0657 12.2001 100.627 13.2075 102.582 15.0223C104.538 16.8372 105.745 19.3266 105.964 21.9966L106 22.875V41.175C106 46.2388 104.078 51.1109 100.627 54.7916C97.176 58.4724 92.4583 60.6828 87.4415 60.9695L86.1704 61.0061C84.1531 67.3441 80.3902 72.9739 75.3203 77.2398C70.2503 81.5057 64.0819 84.232 57.5337 85.1011V94.55H68.1446C73.1684 94.5512 78.0013 96.4893 81.6524 99.9669C85.3035 103.444 87.4961 108.198 87.7805 113.253L87.8168 114.375V117.425C87.8166 118.531 87.4184 119.6 86.6961 120.434C85.9738 121.267 84.9764 121.808 83.8884 121.957L83.2771 122H22.7229C21.6249 122.001 20.5635 121.602 19.7355 120.875C18.9074 120.148 18.3688 119.144 18.2195 118.047L18.1832 117.425V114.375C18.1828 109.312 20.1044 104.441 23.5541 100.76C27.0037 97.0798 31.7199 94.8687 36.7356 94.5805L37.8554 94.55H48.4482V85.1011C41.9021 84.2298 35.7363 81.5026 30.6686 77.2368C25.601 72.9711 21.84 67.3424 19.8235 61.0061L19.6722 61C14.4548 61 9.45112 58.9113 5.76186 55.1934C2.0726 51.4755 0 46.4329 0 41.175V22.875C0 16.9824 4.74554 12.2 10.5927 12.2H18.2679C18.6403 8.84389 20.2273 5.74392 22.7254 3.49309C25.2236 1.24227 28.4575 -0.00139766 31.8085 1.17874e-06H74.1976ZM95.4073 21.35H87.8168V51.7463C90.1832 51.4059 92.3657 50.269 94.0097 48.5203C95.6537 46.7717 96.6625 44.514 96.8721 42.1144L96.9145 41.175V22.875C96.9139 22.5314 96.7982 22.1981 96.5862 21.9291C96.3741 21.66 96.0782 21.471 95.7462 21.3927L95.4012 21.35H95.4073ZM18.1832 21.35H10.5927C10.1914 21.35 9.8065 21.5107 9.52271 21.7967C9.23892 22.0827 9.07949 22.4705 9.07949 22.875V41.175C9.07914 43.7475 10.0006 46.2336 11.6744 48.176C13.3482 50.1183 15.6617 51.3861 18.1892 51.7463V21.35H18.1832Z" fill="url(#paint0_linear_31_21)"/>
<defs>
<linearGradient id="paint0_linear_31_21" x1="53" y1="0" x2="53" y2="122" gradientUnits="userSpaceOnUse">
<stop stop-color="#CBA0CE"/>
<stop offset="0.489583" stop-color="#6D8AC7"/>
<stop offset="1" stop-color="#27E2F0"/>
</linearGradient>
</defs>
</svg>
