<svg width="143" height="143" viewBox="0 0 143 143" fill="none" xmlns="http://www.w3.org/2000/svg">
<g clip-path="url(#clip0_34_2)">
<path fill-rule="evenodd" clip-rule="evenodd" d="M113.208 65.5417C116.828 65.5418 120.363 66.641 123.345 68.6939C126.326 70.7469 128.614 73.6567 129.906 77.0384C131.198 80.4202 131.432 84.1144 130.579 87.6324C129.725 91.1503 127.823 94.3261 125.125 96.7395V126.263C125.125 126.771 124.995 127.271 124.748 127.714C124.5 128.158 124.143 128.531 123.711 128.798C123.279 129.065 122.785 129.217 122.278 129.239C121.77 129.262 121.265 129.154 120.811 128.926L113.208 125.125L105.605 128.926C105.151 129.154 104.646 129.262 104.139 129.239C103.631 129.217 103.138 129.065 102.706 128.798C102.273 128.531 101.917 128.158 101.669 127.714C101.422 127.271 101.292 126.771 101.292 126.263V96.7395C98.5935 94.3261 96.6918 91.1503 95.838 87.6324C94.9843 84.1144 95.2187 80.4202 96.5105 77.0384C97.8022 73.6567 100.09 70.7469 103.072 68.6939C106.054 66.641 109.588 65.5418 113.208 65.5417V65.5417ZM119.167 23.8334C122.327 23.8334 125.358 25.0889 127.593 27.3237C129.828 29.5585 131.083 32.5895 131.083 35.75V59.5834C125.346 55.2806 118.25 53.1916 111.096 53.7C103.943 54.2084 97.2133 57.2799 92.1424 62.3508C87.0716 67.4217 84 74.1515 83.4916 81.3048C82.9832 88.4581 85.0722 95.5547 89.375 101.292V119.167H23.8333C20.6728 119.167 17.6418 117.911 15.407 115.676C13.1722 113.442 11.9167 110.411 11.9167 107.25V35.75C11.9167 32.5895 13.1722 29.5585 15.407 27.3237C17.6418 25.0889 20.6728 23.8334 23.8333 23.8334H119.167ZM47.6667 77.4584H35.75C34.1697 77.4584 32.6542 78.0861 31.5368 79.2035C30.4194 80.3209 29.7917 81.8365 29.7917 83.4167C29.7917 84.997 30.4194 86.5125 31.5368 87.6299C32.6542 88.7473 34.1697 89.375 35.75 89.375H47.6667C49.2469 89.375 50.7624 88.7473 51.8798 87.6299C52.9972 86.5125 53.625 84.997 53.625 83.4167C53.625 81.8365 52.9972 80.3209 51.8798 79.2035C50.7624 78.0861 49.2469 77.4584 47.6667 77.4584V77.4584ZM71.5 53.625H35.75C34.2313 53.6267 32.7706 54.2082 31.6663 55.2508C30.562 56.2933 29.8975 57.7181 29.8085 59.2342C29.7195 60.7502 30.2128 62.243 31.1875 63.4076C32.1622 64.5722 33.5448 65.3206 35.0529 65.5L35.75 65.5417H71.5C73.0187 65.54 74.4794 64.9585 75.5836 63.916C76.6879 62.8735 77.3525 61.4486 77.4415 59.9326C77.5305 58.4165 77.0372 56.9237 76.0625 55.7591C75.0878 54.5945 73.7051 53.8461 72.1971 53.6667L71.5 53.625Z" fill="url(#paint0_linear_34_2)"/>
</g>
<defs>
<linearGradient id="paint0_linear_34_2" x1="71.5" y1="23.8334" x2="71.5" y2="129.242" gradientUnits="userSpaceOnUse">
<stop stop-color="#CBA0CE"/>
<stop offset="0.526042" stop-color="#6D8AC7"/>
<stop offset="1" stop-color="#27E2F0"/>
</linearGradient>
<clipPath id="clip0_34_2">
<rect width="143" height="143" fill="white"/>
</clipPath>
</defs>
</svg>
